# xmcd
#
# Track frame offsets:
#	150
#	13472
#	29550
#	40260
#
# Disc length: 813 seconds
#
# Revision: 0
# Processed by: cddbd v1.5.2PL0 Copyright (c) Steve Scherf et al.
# Submitted via: EZCDAudioConverter 1.3.4.1
#
DISCID=31032b04
DTITLE=Sturmtiger - Atomic Hammer
DYEAR=2012
DGENRE=Death/Black Metal
TTITLE0=Intro - Invasion
TTITLE1=Atomic Hammer
TTITLE2=Sacrifice
TTITLE3=Trench Warfare
EXTD=
EXTT0=
EXTT1=
EXTT2=
EXTT3=
PLAYORDER=
